<svg width="360" height="146" viewBox="0 0 360 146" fill="none" xmlns="http://www.w3.org/2000/svg">
<g filter="url(#filter0_i_79_1274)">
<path d="M33.3996 26.8C33.3996 21.2 31.7996 18.8 28.3996 18.8C24.9996 18.8 23.3996 21.2 23.3996 26.8V118.8C23.3996 124.6 24.9996 127 28.3996 127C31.7996 127 33.3996 124.6 33.3996 118.8V91.2H56.9996V115.6C56.9996 136.2 45.5996 146 28.3996 146C11.3996 146 -0.00039044 136.2 -0.00039044 115.6V30.2C-0.00039044 9.39999 11.3996 -6.67572e-06 28.3996 -6.67572e-06C45.5996 -6.67572e-06 56.9996 9.39999 56.9996 30.2V54.4H33.3996V26.8ZM67.4715 2.99999H94.8715C112.671 2.99999 124.471 14 124.471 34.8V53C124.471 65 119.271 73.2 110.071 76.4V77.2C119.471 80.2 124.471 88.6 124.471 100.6V123.2C124.471 131.2 124.671 135.8 126.071 142.2V143H102.471C101.271 135.8 100.871 131.2 100.871 123.2V94.4C100.871 88.8 99.0715 86.4 94.8715 86.4H90.8715V143H67.4715V2.99999ZM90.8715 21.8V67.4H94.8715C99.0715 67.4 100.871 65 100.871 59.2V29.8C100.871 24.2 99.0715 21.8 94.8715 21.8H90.8715ZM191.543 30.2V115.6C191.543 135.6 180.743 146 163.143 146C145.343 146 134.543 135.6 134.543 115.6V30.2C134.543 10.4 145.343 -6.67572e-06 163.143 -6.67572e-06C180.943 -6.67572e-06 191.543 10.2 191.543 30.2ZM168.143 26.8C168.143 21.2 166.543 18.8 163.143 18.8C159.543 18.8 158.143 21.2 158.143 26.8V118.8C158.143 124.6 159.543 127 163.143 127C166.543 127 168.143 124.6 168.143 118.8V26.8ZM293.839 2.99999L282.039 143H251.039L246.839 36H245.839L245.039 50.6L241.039 143H210.039L198.439 2.99999H222.039L224.839 101L225.039 115.2H226.039L232.039 2.99999H260.439L266.039 101L266.639 115.2H267.639L270.439 2.99999H293.839ZM359.1 33.2V112.6C359.1 133.2 347.3 143 329.5 143H302.1V2.99999H329.5C347.3 2.99999 359.1 12.4 359.1 33.2ZM335.5 29.8C335.5 24.2 333.7 21.8 329.5 21.8H325.5V124H329.5C333.7 124 335.5 121.6 335.5 115.8V29.8Z" fill="#A2CCF2"/>
</g>
<defs>
<filter id="filter0_i_79_1274" x="0" y="0" width="359.1" height="150" filterUnits="userSpaceOnUse" color-interpolation-filters="sRGB">
<feFlood flood-opacity="0" result="BackgroundImageFix"/>
<feBlend mode="normal" in="SourceGraphic" in2="BackgroundImageFix" result="shape"/>
<feColorMatrix in="SourceAlpha" type="matrix" values="0 0 0 0 0 0 0 0 0 0 0 0 0 0 0 0 0 0 127 0" result="hardAlpha"/>
<feOffset dy="4"/>
<feGaussianBlur stdDeviation="2"/>
<feComposite in2="hardAlpha" operator="arithmetic" k2="-1" k3="1"/>
<feColorMatrix type="matrix" values="0 0 0 0 0 0 0 0 0 0 0 0 0 0 0 0 0 0 0.25 0"/>
<feBlend mode="normal" in2="shape" result="effect1_innerShadow_79_1274"/>
</filter>
</defs>
</svg>
