<svg width="288" height="117" viewBox="0 0 288 117" fill="none" xmlns="http://www.w3.org/2000/svg">
<g filter="url(#filter0_i_229_10950)">
<path d="M26.7193 21.4404C26.7193 16.9604 25.4393 15.0404 22.7193 15.0404C19.9993 15.0404 18.7193 16.9604 18.7193 21.4404V95.0404C18.7193 99.6804 19.9993 101.6 22.7193 101.6C25.4393 101.6 26.7193 99.6804 26.7193 95.0404V72.9604H45.5993V92.4804C45.5993 108.96 36.4793 116.8 22.7193 116.8C9.1193 116.8 -0.000702977 108.96 -0.000702977 92.4804V24.1604C-0.000702977 7.52038 9.1193 0.000385284 22.7193 0.000385284C36.4793 0.000385284 45.5993 7.52038 45.5993 24.1604V43.5204H26.7193V21.4404ZM53.9768 2.40038H75.8968C90.1368 2.40038 99.5768 11.2004 99.5768 27.8404V42.4004C99.5768 52.0004 95.4168 58.5604 88.0568 61.1204V61.7604C95.5768 64.1604 99.5768 70.8804 99.5768 80.4804V98.5604C99.5768 104.96 99.7368 108.64 100.857 113.76V114.4H81.9768C81.0168 108.64 80.6968 104.96 80.6968 98.5604V75.5204C80.6968 71.0404 79.2568 69.1204 75.8968 69.1204H72.6968V114.4H53.9768V2.40038ZM72.6968 17.4404V53.9204H75.8968C79.2568 53.9204 80.6968 52.0004 80.6968 47.3604V23.8404C80.6968 19.3604 79.2568 17.4404 75.8968 17.4404H72.6968ZM153.234 24.1604V92.4804C153.234 108.48 144.594 116.8 130.514 116.8C116.274 116.8 107.634 108.48 107.634 92.4804V24.1604C107.634 8.32038 116.274 0.000385284 130.514 0.000385284C144.754 0.000385284 153.234 8.16039 153.234 24.1604ZM134.514 21.4404C134.514 16.9604 133.234 15.0404 130.514 15.0404C127.634 15.0404 126.514 16.9604 126.514 21.4404V95.0404C126.514 99.6804 127.634 101.6 130.514 101.6C133.234 101.6 134.514 99.6804 134.514 95.0404V21.4404ZM235.071 2.40038L225.631 114.4H200.831L197.471 28.8004H196.671L196.031 40.4804L192.831 114.4H168.031L158.751 2.40038H177.631L179.871 80.8004L180.031 92.1604H180.831L185.631 2.40038H208.351L212.831 80.8004L213.311 92.1604H214.111L216.351 2.40038H235.071ZM287.279 26.5604V90.0804C287.279 106.56 277.839 114.4 263.599 114.4H241.679V2.40038H263.599C277.839 2.40038 287.279 9.92038 287.279 26.5604ZM268.399 23.8404C268.399 19.3604 266.959 17.4404 263.599 17.4404H260.399V99.2004H263.599C266.959 99.2004 268.399 97.2804 268.399 92.6404V23.8404Z" fill="#A2CCF2"/>
</g>
<defs>
<filter id="filter0_i_229_10950" x="0" y="0" width="287.279" height="120.801" filterUnits="userSpaceOnUse" color-interpolation-filters="sRGB">
<feFlood flood-opacity="0" result="BackgroundImageFix"/>
<feBlend mode="normal" in="SourceGraphic" in2="BackgroundImageFix" result="shape"/>
<feColorMatrix in="SourceAlpha" type="matrix" values="0 0 0 0 0 0 0 0 0 0 0 0 0 0 0 0 0 0 127 0" result="hardAlpha"/>
<feOffset dy="4"/>
<feGaussianBlur stdDeviation="2"/>
<feComposite in2="hardAlpha" operator="arithmetic" k2="-1" k3="1"/>
<feColorMatrix type="matrix" values="0 0 0 0 0 0 0 0 0 0 0 0 0 0 0 0 0 0 0.25 0"/>
<feBlend mode="normal" in2="shape" result="effect1_innerShadow_229_10950"/>
</filter>
</defs>
</svg>
