<svg width="34" height="34" viewBox="0 0 34 34" fill="none" xmlns="http://www.w3.org/2000/svg">
<path fill-rule="evenodd" clip-rule="evenodd" d="M17.0001 34C12.8126 34 8.55667 31.6888 5.38075 28.0625C2.18968 24.4188 7.71119e-07 19.3557 7.71119e-07 13.6596V13.64C-6.72289e-05 12.4665 -0.000271084 9.03947 2.18665 5.89886C4.43777 2.66607 8.80585 0 17.0001 0C25.1943 0 29.5623 2.66607 31.8134 5.89886C34.0003 9.03939 34.0001 12.4664 34 13.6399V13.6596C34 19.3557 31.8103 24.4188 28.6193 28.0625C25.4434 31.6888 21.1875 34 17.0001 34ZM15.1111 17.3558C15.1111 17.9793 14.6233 18.4875 14.0001 18.5051C13.8583 18.5091 13.714 18.5112 13.5671 18.5112C5.28889 18.5112 5.28889 12.0314 5.28889 10.5998C5.28889 9.97636 5.7767 9.46817 6.39996 9.45049C6.54168 9.44648 6.68599 9.44444 6.83287 9.44444C15.1111 9.44444 15.1111 15.9242 15.1111 17.3558ZM19.9999 18.5051C19.3767 18.4875 18.8889 17.9793 18.8889 17.3558C18.8889 15.9242 18.8889 9.44444 27.1671 9.44444C27.314 9.44444 27.4583 9.44648 27.6001 9.45049C28.2233 9.46817 28.7111 9.97636 28.7111 10.5998C28.7111 12.0314 28.7111 18.5112 20.4329 18.5112C20.286 18.5112 20.1417 18.5091 19.9999 18.5051ZM13.597 24.1568C13.1238 23.6243 12.581 23.1172 11.838 23.6125C11.0271 24.1531 11.3831 25.0779 11.9029 25.6627C12.1323 25.9208 12.4707 26.2586 12.9199 26.5956C13.8219 27.272 15.188 27.9556 16.9999 27.9556C18.812 27.9556 20.178 27.272 21.0799 26.5956C21.5292 26.2586 21.8675 25.9208 22.097 25.6627C22.6169 25.0778 22.9729 24.1532 22.162 23.6125C21.4174 23.1162 20.8625 23.6397 20.4029 24.1568C20.2546 24.3237 20.0262 24.5525 19.7199 24.7822C19.1108 25.2391 18.2102 25.6889 16.9999 25.6889C15.7898 25.6889 14.8891 25.2391 14.2799 24.7822C13.9736 24.5525 13.7454 24.3237 13.597 24.1568Z" fill="#979797"/>
</svg>
