<svg width="34" height="27" viewBox="0 0 34 27" fill="none" xmlns="http://www.w3.org/2000/svg">
<path d="M11.5929 13.5001H11.7252C15.3808 13.5001 18.3442 10.7928 18.3442 7.45311V5.07967C18.3399 3.72323 17.7436 2.42438 16.6875 1.47092C15.6315 0.517457 14.2028 -0.0118787 12.7181 0.000202342H10.5338C7.46689 0.00850423 4.98292 2.2778 4.97383 5.07967V7.45311C4.97383 10.7928 7.93727 13.5001 11.5929 13.5001Z" fill="#979797"/>
<path d="M25.7907 12.3663C28.5323 12.3663 30.7549 10.3358 30.7549 7.83105V6.09254C30.755 4.00031 28.9081 2.29954 26.618 2.28294H24.9633C22.6732 2.29954 20.8263 4.00031 20.8264 6.09254V7.83105C20.8264 10.3358 23.049 12.3663 25.7907 12.3663Z" fill="#979797"/>
<path d="M33.8824 18.6703L33.6176 17.476C33.3047 15.8365 31.7492 14.6385 29.9275 14.6339H19.8335C18.6 14.6363 17.4501 15.2041 16.7722 16.1457H5.10621C3.93577 16.1464 2.81032 16.5577 1.96218 17.2946C1.23348 17.9046 0.720674 18.6994 0.489446 19.5773C0.489446 19.6529 0.489446 19.7285 0.489446 19.789V20.182L0.141948 21.3914C-0.211982 22.7145 0.103749 24.1129 1.00188 25.2001C1.90001 26.2873 3.28544 26.9481 4.77526 27H18.4766C18.8282 26.9989 19.1784 26.9583 19.5191 26.8791H19.7342C19.9829 26.8143 20.2262 26.7335 20.4623 26.6372L20.7271 26.5011C20.9246 26.3993 21.1127 26.283 21.2897 26.1534L21.5545 25.9569C21.7172 25.8183 21.8719 25.672 22.0178 25.5185C22.0178 25.4429 22.1667 25.3824 22.2329 25.2917C22.4179 25.0697 22.5786 24.8318 22.7128 24.5812C22.7834 24.4438 22.8442 24.3024 22.8948 24.1579C22.9599 24.0202 23.0151 23.8788 23.0603 23.7346C23.0603 23.5835 23.143 23.4323 23.1761 23.2811V23.0543H30.2585C31.427 23.0227 32.5167 22.5085 33.2212 21.6562C33.9257 20.804 34.1689 19.7057 33.8824 18.6703Z" fill="#979797"/>
</svg>
