<svg width="34" height="34" viewBox="0 0 34 34" fill="none" xmlns="http://www.w3.org/2000/svg">
<path fill-rule="evenodd" clip-rule="evenodd" d="M15.1419 0.451029C15.7477 0.194533 16.3776 0 16.9073 0C17.4332 0 18.0711 0.192327 18.6894 0.44716C19.3414 0.715806 20.0886 1.10372 20.8696 1.59533C22.4282 2.57647 24.1823 4.00942 25.6167 5.82608C26.0829 6.41661 26.3464 7.12852 26.4095 7.86556C26.7062 11.324 26.7719 17.6017 26.7656 22.9667C26.7624 25.6596 26.7409 28.1392 26.7203 29.9453C26.7191 30.0552 26.7178 30.1461 26.7165 30.2222H28.1636C28.1647 30.1484 28.1659 30.0633 28.167 29.964C28.1877 28.1542 28.2092 25.669 28.2124 22.9693C28.2171 18.9435 28.1817 14.3534 28.0347 10.8199L28.0784 10.8221C30.0223 10.9231 31.5605 12.5167 31.6574 14.5539C31.7425 16.3428 31.8298 19.0723 31.8298 22.7422V30.2222H32.1915C33.1903 30.2222 34 31.0679 34 32.1111C34 33.1543 33.1903 34 32.1915 34H1.80851C0.809699 34 0 33.1543 0 32.1111C0 31.0679 0.809699 30.2222 1.80851 30.2222H2.17021V22.7422C2.17021 19.0723 2.25751 16.3428 2.34261 14.5539C2.43953 12.5166 3.97772 10.923 5.92169 10.822L5.9653 10.8198C5.81824 14.3534 5.78289 18.9435 5.78764 22.9693C5.79083 25.669 5.81231 28.1542 5.83297 29.964C5.83411 30.0633 5.83527 30.1484 5.83647 30.2222H7.28352C7.28222 30.1461 7.28092 30.0552 7.27969 29.9453C7.25907 28.1392 7.23766 25.6596 7.23448 22.9667C7.22811 17.6017 7.2938 11.324 7.59046 7.86556C7.65369 7.12784 7.91759 6.41783 8.37999 5.82813C9.79931 4.01807 11.5021 2.5861 13.0179 1.60296C13.7769 1.11068 14.5038 0.721223 15.1419 0.451029ZM13.7447 30.2222H20.2553V26.8214C20.2553 24.9435 18.7977 23.4222 17 23.4222C15.2023 23.4222 13.7447 24.9435 13.7447 26.8214V30.2222ZM14.4681 7.93333C14.4681 6.47284 15.6017 5.28889 17 5.28889C18.3983 5.28889 19.5319 6.47284 19.5319 7.93333C19.5319 9.39382 18.3983 10.5778 17 10.5778C15.6017 10.5778 14.4681 9.39382 14.4681 7.93333ZM15.1915 13.2222C15.1915 12.5963 14.7057 12.0889 14.1064 12.0889C13.5071 12.0889 13.0213 12.5963 13.0213 13.2222V14.7333C13.0213 15.3592 13.5071 15.8667 14.1064 15.8667C14.7057 15.8667 15.1915 15.3592 15.1915 14.7333V13.2222ZM14.1064 17.3778C14.7057 17.3778 15.1915 17.8852 15.1915 18.5111V20.0222C15.1915 20.6481 14.7057 21.1556 14.1064 21.1556C13.5071 21.1556 13.0213 20.6481 13.0213 20.0222V18.5111C13.0213 17.8852 13.5071 17.3778 14.1064 17.3778ZM20.9787 13.2222C20.9787 12.5963 20.4929 12.0889 19.8936 12.0889C19.2943 12.0889 18.8085 12.5963 18.8085 13.2222V14.7333C18.8085 15.3592 19.2943 15.8667 19.8936 15.8667C20.4929 15.8667 20.9787 15.3592 20.9787 14.7333V13.2222ZM19.8936 17.3778C20.4929 17.3778 20.9787 17.8852 20.9787 18.5111V20.0222C20.9787 20.6481 20.4929 21.1556 19.8936 21.1556C19.2943 21.1556 18.8085 20.6481 18.8085 20.0222V18.5111C18.8085 17.8852 19.2943 17.3778 19.8936 17.3778Z" fill="#979797"/>
</svg>
