<svg width="26" height="26" viewBox="0 0 26 26" fill="none" xmlns="http://www.w3.org/2000/svg">
<path d="M18.9909 21.5692H7.0092C5.7092 21.5475 4.46336 21.0058 3.55336 20.0742C2.64336 19.1317 2.14503 17.875 2.16669 16.575V8.24417C2.14503 6.94417 2.64336 5.67667 3.55336 4.74501C4.46336 3.80251 5.7092 3.27167 7.0092 3.25H18.0484C19.3484 3.27167 20.5942 3.81334 21.5042 4.74501C22.4142 5.68751 22.9125 6.94417 22.8909 8.24417V18.2433L23.8334 23.2483L18.9909 21.58V21.5692Z" stroke="#3B3B3D" stroke-width="1.5" stroke-linejoin="round"/>
<path d="M7.83185 11.5703C8.20018 11.5703 8.50351 11.8736 8.50351 12.242C8.50351 12.6103 8.20018 12.9136 7.83185 12.9136C7.46352 12.9136 7.16016 12.6103 7.16016 12.242C7.16016 11.8736 7.46352 11.5703 7.83185 11.5703Z" stroke="#3B3B3D" stroke-width="1.2" stroke-miterlimit="10"/>
<path d="M12.8377 12.9019C13.206 12.9019 13.5093 12.5986 13.5093 12.2303C13.5093 11.8619 13.206 11.5586 12.8377 11.5586C12.4693 11.5586 12.166 11.8619 12.166 12.2303C12.166 12.5986 12.4693 12.9019 12.8377 12.9019Z" stroke="#3B3B3D" stroke-width="1.2" stroke-miterlimit="10"/>
<path d="M17.8318 12.9019C18.2002 12.9019 18.5035 12.5986 18.5035 12.2303C18.5035 11.8619 18.2002 11.5586 17.8318 11.5586C17.4635 11.5586 17.1602 11.8619 17.1602 12.2303C17.1602 12.5986 17.4635 12.9019 17.8318 12.9019Z" stroke="#3B3B3D" stroke-width="1.2" stroke-miterlimit="10"/>
</svg>
