<svg width="35" height="27" viewBox="0 0 35 27" fill="none" xmlns="http://www.w3.org/2000/svg">
<path fill-rule="evenodd" clip-rule="evenodd" d="M7.07087 0.460782C9.31196 0.237927 12.717 0 17.041 0C21.3649 0 24.7699 0.237934 27.0111 0.460782C29.286 0.686992 31.26 2.16402 31.9035 4.44843C32.7144 7.32696 33.7512 12.3805 34.0751 20.0917C34.2179 23.4908 32.1266 26.9792 28.2702 26.9792C27.7721 26.9792 27.3085 26.9604 26.8797 26.928C23.9628 26.7075 22.0932 24.3948 21.3064 21.9629L21.183 21.5817C21.0301 21.1089 20.7395 20.8424 20.4401 20.763C19.7269 20.5739 18.5947 20.368 17.041 20.368C15.4873 20.368 14.355 20.5739 13.6419 20.763C13.3425 20.8424 13.0519 21.1089 12.8989 21.5817L12.7756 21.9629C11.9888 24.3948 10.1192 26.7075 7.20227 26.928C6.77339 26.9604 6.30989 26.9792 5.8118 26.9792C1.95534 26.9792 -0.135931 23.4908 0.00686031 20.0917C0.330789 12.3805 1.36759 7.32696 2.17844 4.44843C2.82194 2.16403 4.796 0.686992 7.07087 0.460782ZM10.4789 6.19792C11.2844 6.19792 11.9373 6.85081 11.9373 7.65625V9.11458H13.3956C14.201 9.11458 14.8539 9.76748 14.8539 10.5729C14.8539 11.3784 14.201 12.0312 13.3956 12.0312H11.9373V13.4896C11.9373 14.295 11.2844 14.9479 10.4789 14.9479C9.67349 14.9479 9.02059 14.295 9.02059 13.4896V12.0312H7.56226C6.75684 12.0312 6.10392 11.3784 6.10392 10.5729C6.10392 9.76748 6.75684 9.11458 7.56226 9.11458H9.02059V7.65625C9.02059 6.85081 9.67349 6.19792 10.4789 6.19792ZM25.0623 13.125C25.0623 12.3196 24.4094 11.6667 23.6039 11.6667C22.7985 11.6667 22.1456 12.3196 22.1456 13.125V13.4896C22.1456 14.295 22.7985 14.9479 23.6039 14.9479C24.4094 14.9479 25.0623 14.295 25.0623 13.4896V13.125ZM22.5102 10.5729C22.5102 11.3784 21.8573 12.0312 21.0518 12.0312H20.6873C19.8818 12.0312 19.2289 11.3784 19.2289 10.5729C19.2289 9.76748 19.8818 9.11458 20.6873 9.11458H21.0518C21.8573 9.11458 22.5102 9.76748 22.5102 10.5729ZM25.0623 7.65625C25.0623 6.85081 24.4094 6.19792 23.6039 6.19792C22.7985 6.19792 22.1456 6.85081 22.1456 7.65625V8.02083C22.1456 8.82627 22.7985 9.47917 23.6039 9.47917C24.4094 9.47917 25.0623 8.82627 25.0623 8.02083V7.65625ZM27.9789 10.5729C27.9789 11.3784 27.326 12.0312 26.5206 12.0312H26.156C25.3506 12.0312 24.6977 11.3784 24.6977 10.5729C24.6977 9.76748 25.3506 9.11458 26.156 9.11458H26.5206C27.326 9.11458 27.9789 9.76748 27.9789 10.5729Z" fill="#979797"/>
</svg>
