<svg width="35" height="35" viewBox="0 0 35 35" fill="none" xmlns="http://www.w3.org/2000/svg">
<g clip-path="url(#clip0_150_7814)">
<path fill-rule="evenodd" clip-rule="evenodd" d="M17.5001 0.503906C8.1134 0.503906 0.503906 8.11333 0.503906 17.5001C0.503906 26.8868 8.1134 34.4963 17.5001 34.4963C26.8869 34.4963 34.4963 26.8868 34.4963 17.5001C34.4963 8.11333 26.8869 0.503906 17.5001 0.503906ZM13.9722 8.25967C13.9722 10.2081 15.5517 11.7875 17.5001 11.7875C19.4484 11.7875 21.028 10.2081 21.028 8.25967C21.028 6.31133 19.4484 4.73186 17.5001 4.73186C15.5517 4.73186 13.9722 6.31133 13.9722 8.25967ZM8.13432 14.6674C8.09254 15.0594 8.11806 15.4107 8.17319 15.7089C8.30604 16.4279 8.96769 16.8541 9.68468 16.9976L12.2094 17.503C13.0191 17.665 13.6018 18.3759 13.6018 19.2017L13.5644 20.1238C13.5404 20.7135 13.3957 21.2913 13.1506 21.8282C12.4265 23.4147 11.5865 25.4162 10.9905 27.006C10.6335 27.9587 11.2366 28.9809 12.2489 29.0819C12.6027 29.1171 12.9313 29.1433 13.2187 29.1627C13.918 29.2098 14.5746 28.8541 14.9486 28.2613L17.4963 23.1244L20.0515 28.2613C20.4256 28.8541 21.0821 29.2098 21.7815 29.1627C22.0688 29.1433 22.3975 29.1171 22.7512 29.0819C23.7636 28.9809 24.3667 27.9587 24.0096 27.006C23.4209 25.4356 22.5941 23.4632 21.876 21.8861C21.6144 21.3116 21.468 20.6907 21.46 20.0593L21.449 19.1967C21.449 18.3731 22.0286 17.6635 22.8355 17.4991L25.2307 17.0111C25.9748 16.8595 26.6576 16.4083 26.8113 15.6647C26.8819 15.3238 26.9155 14.9248 26.856 14.4978C26.7408 13.67 25.8884 13.2458 25.0527 13.2458H10.0586C9.14291 13.2458 8.23137 13.7569 8.13432 14.6674Z" fill="#979797"/>
</g>
<defs>
<clipPath id="clip0_150_7814">
<rect width="35" height="35" fill="white"/>
</clipPath>
</defs>
</svg>
