<svg width="352" height="54" viewBox="0 0 352 54" fill="none" xmlns="http://www.w3.org/2000/svg">
<mask id="path-1-outside-1_79_1504" maskUnits="userSpaceOnUse" x="-0.929688" y="-0.330078" width="353" height="54" fill="black">
<rect fill="white" x="-0.929688" y="-0.330078" width="353" height="54"/>
<path d="M0.500313 51.6699V1.61992H24.0903C35.2203 1.61992 41.9403 6.72992 41.9403 16.1799C41.9403 22.8299 38.0203 27.0299 31.7903 28.4299V28.5699C44.3203 30.7399 39.7703 50.1299 42.6403 50.9699V51.6699H29.5503C27.1003 49.5699 31.6503 34.2399 20.9403 34.2399H13.1003V51.6699H0.500313ZM13.1003 11.9099V23.9499H21.6403C26.6803 23.9499 29.3403 22.1299 29.3403 17.9299C29.3403 13.7299 26.6803 11.9099 21.6403 11.9099H13.1003ZM62.1632 20.7999H84.0032V31.0899H62.1632V41.3799H87.9232V51.6699H49.5632V1.61992H87.5032V11.9099H62.1632V20.7999ZM126.793 18.2099C125.883 14.7799 123.573 10.7899 116.643 10.7899C108.383 10.7899 105.233 17.2299 105.233 26.6099C105.233 36.0599 108.383 42.4999 117.133 42.4999C122.943 42.4999 127.003 38.9999 127.143 34.1699H117.623V25.0699H140.163V51.6699H131.133L129.873 45.2999H129.733C127.353 49.8499 122.663 52.7899 115.313 52.7899C101.103 52.7899 92.6329 41.7299 92.6329 26.6099C92.6329 11.5599 101.103 0.499921 116.853 0.499921C130.573 0.499921 138.203 8.61992 139.393 18.2099H126.793ZM148.374 1.61992H160.974V51.6699H148.374V1.61992ZM191.709 20.5899C201.159 23.1799 210.889 26.2599 210.889 36.9699C210.889 46.5599 203.609 52.7899 191.079 52.7899C178.059 52.7899 168.259 46.3499 168.259 35.2199H180.859C180.859 40.5399 185.479 42.4999 191.079 42.4999C195.769 42.4999 198.289 40.6799 198.289 38.1599C198.289 34.1699 192.899 33.2599 185.829 31.1599C177.219 28.6399 169.659 24.9299 169.659 15.6899C169.659 4.76992 178.199 0.499921 188.979 0.499921C200.669 0.499921 209.839 6.65992 210.189 16.8099H197.589C197.029 13.0299 193.809 10.7899 188.979 10.7899C185.199 10.7899 182.259 11.9799 182.259 14.7799C182.259 17.8599 185.409 18.8399 191.709 20.5899ZM228.604 51.6699V11.9099H214.044V1.61992H255.694V11.9099H241.204V51.6699H228.604ZM275.007 20.7999H296.847V31.0899H275.007V41.3799H300.767V51.6699H262.407V1.61992H300.347V11.9099H275.007V20.7999ZM308.462 51.6699V1.61992H332.052C343.182 1.61992 349.902 6.72992 349.902 16.1799C349.902 22.8299 345.982 27.0299 339.752 28.4299V28.5699C352.282 30.7399 347.732 50.1299 350.602 50.9699V51.6699H337.512C335.062 49.5699 339.612 34.2399 328.902 34.2399H321.062V51.6699H308.462ZM321.062 11.9099V23.9499H329.602C334.642 23.9499 337.302 22.1299 337.302 17.9299C337.302 13.7299 334.642 11.9099 329.602 11.9099H321.062Z"/>
</mask>
<g filter="url(#filter0_i_79_1504)">
<path d="M0.500313 51.6699V1.61992H24.0903C35.2203 1.61992 41.9403 6.72992 41.9403 16.1799C41.9403 22.8299 38.0203 27.0299 31.7903 28.4299V28.5699C44.3203 30.7399 39.7703 50.1299 42.6403 50.9699V51.6699H29.5503C27.1003 49.5699 31.6503 34.2399 20.9403 34.2399H13.1003V51.6699H0.500313ZM13.1003 11.9099V23.9499H21.6403C26.6803 23.9499 29.3403 22.1299 29.3403 17.9299C29.3403 13.7299 26.6803 11.9099 21.6403 11.9099H13.1003ZM62.1632 20.7999H84.0032V31.0899H62.1632V41.3799H87.9232V51.6699H49.5632V1.61992H87.5032V11.9099H62.1632V20.7999ZM126.793 18.2099C125.883 14.7799 123.573 10.7899 116.643 10.7899C108.383 10.7899 105.233 17.2299 105.233 26.6099C105.233 36.0599 108.383 42.4999 117.133 42.4999C122.943 42.4999 127.003 38.9999 127.143 34.1699H117.623V25.0699H140.163V51.6699H131.133L129.873 45.2999H129.733C127.353 49.8499 122.663 52.7899 115.313 52.7899C101.103 52.7899 92.6329 41.7299 92.6329 26.6099C92.6329 11.5599 101.103 0.499921 116.853 0.499921C130.573 0.499921 138.203 8.61992 139.393 18.2099H126.793ZM148.374 1.61992H160.974V51.6699H148.374V1.61992ZM191.709 20.5899C201.159 23.1799 210.889 26.2599 210.889 36.9699C210.889 46.5599 203.609 52.7899 191.079 52.7899C178.059 52.7899 168.259 46.3499 168.259 35.2199H180.859C180.859 40.5399 185.479 42.4999 191.079 42.4999C195.769 42.4999 198.289 40.6799 198.289 38.1599C198.289 34.1699 192.899 33.2599 185.829 31.1599C177.219 28.6399 169.659 24.9299 169.659 15.6899C169.659 4.76992 178.199 0.499921 188.979 0.499921C200.669 0.499921 209.839 6.65992 210.189 16.8099H197.589C197.029 13.0299 193.809 10.7899 188.979 10.7899C185.199 10.7899 182.259 11.9799 182.259 14.7799C182.259 17.8599 185.409 18.8399 191.709 20.5899ZM228.604 51.6699V11.9099H214.044V1.61992H255.694V11.9099H241.204V51.6699H228.604ZM275.007 20.7999H296.847V31.0899H275.007V41.3799H300.767V51.6699H262.407V1.61992H300.347V11.9099H275.007V20.7999ZM308.462 51.6699V1.61992H332.052C343.182 1.61992 349.902 6.72992 349.902 16.1799C349.902 22.8299 345.982 27.0299 339.752 28.4299V28.5699C352.282 30.7399 347.732 50.1299 350.602 50.9699V51.6699H337.512C335.062 49.5699 339.612 34.2399 328.902 34.2399H321.062V51.6699H308.462ZM321.062 11.9099V23.9499H329.602C334.642 23.9499 337.302 22.1299 337.302 17.9299C337.302 13.7299 334.642 11.9099 329.602 11.9099H321.062Z" fill="#E7ECF0"/>
</g>
<path d="M0.500313 51.6699H0.000312671V52.1699H0.500313V51.6699ZM0.500313 1.61992V1.11992H0.000312671V1.61992H0.500313ZM31.7903 28.4299L31.6807 27.9421L31.2903 28.0298V28.4299H31.7903ZM31.7903 28.5699H31.2903V28.9908L31.705 29.0626L31.7903 28.5699ZM42.6403 50.9699H43.1403V50.5953L42.7808 50.4901L42.6403 50.9699ZM42.6403 51.6699V52.1699H43.1403V51.6699H42.6403ZM29.5503 51.6699L29.2249 52.0496L29.3654 52.1699H29.5503V51.6699ZM13.1003 34.2399V33.7399H12.6003V34.2399H13.1003ZM13.1003 51.6699V52.1699H13.6003V51.6699H13.1003ZM13.1003 11.9099V11.4099H12.6003V11.9099H13.1003ZM13.1003 23.9499H12.6003V24.4499H13.1003V23.9499ZM0.500313 51.6699H1.00031V1.61992H0.500313H0.000312671V51.6699H0.500313ZM0.500313 1.61992V2.11992H24.0903V1.61992V1.11992H0.500313V1.61992ZM24.0903 1.61992V2.11992C29.5872 2.11992 33.924 3.38275 36.8766 5.7465C39.8128 8.09716 41.4403 11.5843 41.4403 16.1799H41.9403H42.4403C42.4403 11.3255 40.7078 7.53268 37.5015 4.96584C34.3116 2.41209 29.7234 1.11992 24.0903 1.11992V1.61992ZM41.9403 16.1799H41.4403C41.4403 19.4021 40.4929 21.9947 38.8216 23.9487C37.1473 25.9062 34.7139 27.2605 31.6807 27.9421L31.7903 28.4299L31.8999 28.9178C35.0967 28.1994 37.7384 26.7536 39.5815 24.5987C41.4278 22.4401 42.4403 19.6077 42.4403 16.1799H41.9403ZM31.7903 28.4299H31.2903V28.5699H31.7903H32.2903V28.4299H31.7903ZM31.7903 28.5699L31.705 29.0626C34.6887 29.5793 36.6372 31.1098 37.9482 33.1386C39.2718 35.187 39.9537 37.7583 40.3434 40.3432C40.7342 42.9358 40.8222 45.4588 40.9982 47.4644C41.0847 48.4503 41.1941 49.3271 41.3831 49.9919C41.4777 50.325 41.6 50.6335 41.7688 50.8835C41.9406 51.1381 42.1776 51.3555 42.4999 51.4498L42.6403 50.9699L42.7808 50.4901C42.7443 50.4794 42.6805 50.4468 42.5976 50.324C42.5116 50.1967 42.4251 50.0003 42.345 49.7186C42.1845 49.1537 42.0807 48.361 41.9943 47.377C41.8247 45.4429 41.7289 42.8253 41.3322 40.1941C40.9344 37.5553 40.2251 34.8197 38.7881 32.5959C37.3384 30.3525 35.1569 28.6455 31.8756 28.0773L31.7903 28.5699ZM42.6403 50.9699H42.1403V51.6699H42.6403H43.1403V50.9699H42.6403ZM42.6403 51.6699V51.1699H29.5503V51.6699V52.1699H42.6403V51.6699ZM29.5503 51.6699L29.8757 51.2903C29.7011 51.1406 29.5317 50.8125 29.4054 50.2147C29.2832 49.6359 29.2194 48.8984 29.1769 48.036C29.0933 46.3393 29.0957 44.1774 28.839 42.1059C28.5819 40.0309 28.0562 37.9419 26.8574 36.3654C25.6349 34.7578 23.7565 33.7399 20.9403 33.7399V34.2399V34.7399C23.4791 34.7399 25.0482 35.6383 26.0614 36.9707C27.0982 38.3342 27.5963 40.2089 27.8466 42.2289C28.0974 44.2525 28.091 46.3168 28.1781 48.0851C28.221 48.9552 28.2873 49.7599 28.427 50.4214C28.5627 51.0639 28.7871 51.6742 29.2249 52.0496L29.5503 51.6699ZM20.9403 34.2399V33.7399H13.1003V34.2399V34.7399H20.9403V34.2399ZM13.1003 34.2399H12.6003V51.6699H13.1003H13.6003V34.2399H13.1003ZM13.1003 51.6699V51.1699H0.500313V51.6699V52.1699H13.1003V51.6699ZM13.1003 11.9099H12.6003V23.9499H13.1003H13.6003V11.9099H13.1003ZM13.1003 23.9499V24.4499H21.6403V23.9499V23.4499H13.1003V23.9499ZM21.6403 23.9499V24.4499C24.2045 24.4499 26.2598 23.9899 27.682 22.9136C29.1325 21.816 29.8403 20.1437 29.8403 17.9299H29.3403H28.8403C28.8403 19.9161 28.2181 21.2539 27.0786 22.1162C25.9108 22.9999 24.1162 23.4499 21.6403 23.4499V23.9499ZM29.3403 17.9299H29.8403C29.8403 15.7161 29.1325 14.0439 27.682 12.9462C26.2598 11.8699 24.2045 11.4099 21.6403 11.4099V11.9099V12.4099C24.1162 12.4099 25.9108 12.8599 27.0786 13.7436C28.2181 14.606 28.8403 15.9437 28.8403 17.9299H29.3403ZM21.6403 11.9099V11.4099H13.1003V11.9099V12.4099H21.6403V11.9099ZM62.1632 20.7999H61.6632V21.2999H62.1632V20.7999ZM84.0032 20.7999H84.5032V20.2999H84.0032V20.7999ZM84.0032 31.0899V31.5899H84.5032V31.0899H84.0032ZM62.1632 31.0899V30.5899H61.6632V31.0899H62.1632ZM62.1632 41.3799H61.6632V41.8799H62.1632V41.3799ZM87.9232 41.3799H88.4232V40.8799H87.9232V41.3799ZM87.9232 51.6699V52.1699H88.4232V51.6699H87.9232ZM49.5632 51.6699H49.0632V52.1699H49.5632V51.6699ZM49.5632 1.61992V1.11992H49.0632V1.61992H49.5632ZM87.5032 1.61992H88.0032V1.11992H87.5032V1.61992ZM87.5032 11.9099V12.4099H88.0032V11.9099H87.5032ZM62.1632 11.9099V11.4099H61.6632V11.9099H62.1632ZM62.1632 20.7999V21.2999H84.0032V20.7999V20.2999H62.1632V20.7999ZM84.0032 20.7999H83.5032V31.0899H84.0032H84.5032V20.7999H84.0032ZM84.0032 31.0899V30.5899H62.1632V31.0899V31.5899H84.0032V31.0899ZM62.1632 31.0899H61.6632V41.3799H62.1632H62.6632V31.0899H62.1632ZM62.1632 41.3799V41.8799H87.9232V41.3799V40.8799H62.1632V41.3799ZM87.9232 41.3799H87.4232V51.6699H87.9232H88.4232V41.3799H87.9232ZM87.9232 51.6699V51.1699H49.5632V51.6699V52.1699H87.9232V51.6699ZM49.5632 51.6699H50.0632V1.61992H49.5632H49.0632V51.6699H49.5632ZM49.5632 1.61992V2.11992H87.5032V1.61992V1.11992H49.5632V1.61992ZM87.5032 1.61992H87.0032V11.9099H87.5032H88.0032V1.61992H87.5032ZM87.5032 11.9099V11.4099H62.1632V11.9099V12.4099H87.5032V11.9099ZM62.1632 11.9099H61.6632V20.7999H62.1632H62.6632V11.9099H62.1632ZM126.793 18.2099L126.31 18.3381L126.408 18.7099H126.793V18.2099ZM127.143 34.1699L127.643 34.1844L127.658 33.6699H127.143V34.1699ZM117.623 34.1699H117.123V34.6699H117.623V34.1699ZM117.623 25.0699V24.5699H117.123V25.0699H117.623ZM140.163 25.0699H140.663V24.5699H140.163V25.0699ZM140.163 51.6699V52.1699H140.663V51.6699H140.163ZM131.133 51.6699L130.642 51.7669L130.722 52.1699H131.133V51.6699ZM129.873 45.2999L130.363 45.2029L130.284 44.7999H129.873V45.2999ZM129.733 45.2999V44.7999H129.43L129.29 45.0682L129.733 45.2999ZM139.393 18.2099V18.7099H139.959L139.889 18.1483L139.393 18.2099ZM126.793 18.2099L127.276 18.0817C126.808 16.317 125.968 14.3603 124.313 12.8449C122.648 11.3204 120.211 10.2899 116.643 10.2899V10.7899V11.2899C120.005 11.2899 122.188 12.2544 123.638 13.5824C125.098 14.9196 125.868 16.6728 126.31 18.3381L126.793 18.2099ZM116.643 10.7899V10.2899C112.36 10.2899 109.343 11.9725 107.422 14.9087C105.525 17.8096 104.733 21.8791 104.733 26.6099H105.233H105.733C105.733 21.9607 106.516 18.1203 108.259 15.4561C109.978 12.8274 112.666 11.2899 116.643 11.2899V10.7899ZM105.233 26.6099H104.733C104.733 31.3745 105.524 35.4656 107.487 38.3781C109.474 41.3263 112.616 42.9999 117.133 42.9999V42.4999V41.9999C112.9 41.9999 110.092 40.4536 108.316 37.8192C106.517 35.1492 105.733 31.2954 105.733 26.6099H105.233ZM117.133 42.4999V42.9999C123.144 42.9999 127.493 39.349 127.643 34.1844L127.143 34.1699L126.643 34.1554C126.513 38.6509 122.742 41.9999 117.133 41.9999V42.4999ZM127.143 34.1699V33.6699H117.623V34.1699V34.6699H127.143V34.1699ZM117.623 34.1699H118.123V25.0699H117.623H117.123V34.1699H117.623ZM117.623 25.0699V25.5699H140.163V25.0699V24.5699H117.623V25.0699ZM140.163 25.0699H139.663V51.6699H140.163H140.663V25.0699H140.163ZM140.163 51.6699V51.1699H131.133V51.6699V52.1699H140.163V51.6699ZM131.133 51.6699L131.623 51.5729L130.363 45.2029L129.873 45.2999L129.382 45.3969L130.642 51.7669L131.133 51.6699ZM129.873 45.2999V44.7999H129.733V45.2999V45.7999H129.873V45.2999ZM129.733 45.2999L129.29 45.0682C127.012 49.4235 122.513 52.2899 115.313 52.2899V52.7899V53.2899C122.813 53.2899 127.694 50.2764 130.176 45.5317L129.733 45.2999ZM115.313 52.7899V52.2899C108.349 52.2899 102.822 49.5853 99.0277 45.0491C95.2253 40.5034 93.1329 34.0806 93.1329 26.6099H92.6329H92.1329C92.1329 34.2593 94.2754 40.9264 98.2606 45.6907C102.254 50.4645 108.067 53.2899 115.313 53.2899V52.7899ZM92.6329 26.6099H93.1329C93.1329 19.1748 95.2248 12.7751 99.2121 8.24137C103.192 3.71629 109.103 0.999921 116.853 0.999921V0.499921V-7.85589e-05C108.853 -7.85589e-05 102.654 2.81356 98.4612 7.58097C94.276 12.3397 92.1329 18.995 92.1329 26.6099H92.6329ZM116.853 0.499921V0.999921C123.612 0.999921 128.829 2.99821 132.496 6.13849C136.166 9.27996 138.316 13.5904 138.897 18.2715L139.393 18.2099L139.889 18.1483C139.28 13.2395 137.02 8.69488 133.147 5.37886C129.272 2.06164 123.814 -7.85589e-05 116.853 -7.85589e-05V0.499921ZM139.393 18.2099V17.7099H126.793V18.2099V18.7099H139.393V18.2099ZM148.374 1.61992V1.11992H147.874V1.61992H148.374ZM160.974 1.61992H161.474V1.11992H160.974V1.61992ZM160.974 51.6699V52.1699H161.474V51.6699H160.974ZM148.374 51.6699H147.874V52.1699H148.374V51.6699ZM148.374 1.61992V2.11992H160.974V1.61992V1.11992H148.374V1.61992ZM160.974 1.61992H160.474V51.6699H160.974H161.474V1.61992H160.974ZM160.974 51.6699V51.1699H148.374V51.6699V52.1699H160.974V51.6699ZM148.374 51.6699H148.874V1.61992H148.374H147.874V51.6699H148.374ZM191.709 20.5899L191.575 21.0717L191.576 21.0721L191.709 20.5899ZM168.259 35.2199V34.7199H167.759V35.2199H168.259ZM180.859 35.2199H181.359V34.7199H180.859V35.2199ZM185.829 31.1599L185.971 30.6806L185.969 30.6801L185.829 31.1599ZM210.189 16.8099V17.3099H210.706L210.688 16.7927L210.189 16.8099ZM197.589 16.8099L197.094 16.8832L197.157 17.3099H197.589V16.8099ZM191.709 20.5899L191.576 21.0721C196.313 22.3703 201.028 23.7701 204.563 26.1497C208.061 28.5043 210.389 31.8065 210.389 36.9699H210.889H211.389C211.389 31.4233 208.851 27.8305 205.122 25.3201C201.429 22.8347 196.554 21.3995 191.841 20.1077L191.709 20.5899ZM210.889 36.9699H210.389C210.389 41.6275 208.627 45.435 205.367 48.0884C202.095 50.7513 197.266 52.2899 191.079 52.2899V52.7899V53.2899C197.421 53.2899 202.497 51.7135 205.998 48.864C209.511 46.0049 211.389 41.9024 211.389 36.9699H210.889ZM191.079 52.7899V52.2899C184.644 52.2899 179.052 50.6978 175.082 47.776C171.127 44.8648 168.759 40.6191 168.759 35.2199H168.259H167.759C167.759 40.9508 170.29 45.49 174.49 48.5814C178.675 51.662 184.493 53.2899 191.079 53.2899V52.7899ZM168.259 35.2199V35.7199H180.859V35.2199V34.7199H168.259V35.2199ZM180.859 35.2199H180.359C180.359 38.0546 181.604 40.0341 183.604 41.2794C185.572 42.5043 188.234 42.9999 191.079 42.9999V42.4999V41.9999C188.323 41.9999 185.875 41.5155 184.133 40.4305C182.423 39.3657 181.359 37.7053 181.359 35.2199H180.859ZM191.079 42.4999V42.9999C193.479 42.9999 195.386 42.5356 196.71 41.6974C198.051 40.8481 198.789 39.6131 198.789 38.1599H198.289H197.789C197.789 39.2267 197.266 40.1618 196.175 40.8525C195.066 41.5543 193.368 41.9999 191.079 41.9999V42.4999ZM198.289 38.1599H198.789C198.789 37.0343 198.403 36.1105 197.706 35.3424C197.023 34.5888 196.056 34.0009 194.912 33.494C192.642 32.4879 189.463 31.7178 185.971 30.6806L185.829 31.1599L185.686 31.6392C189.264 32.702 192.315 33.4369 194.507 34.4083C195.595 34.8902 196.417 35.4091 196.966 36.014C197.501 36.6043 197.789 37.2906 197.789 38.1599H198.289ZM185.829 31.1599L185.969 30.6801C181.677 29.4237 177.715 27.8882 174.829 25.5561C171.97 23.2449 170.159 20.1458 170.159 15.6899H169.659H169.159C169.159 20.4741 171.127 23.8499 174.201 26.3338C177.248 28.7966 181.371 30.3761 185.688 31.6398L185.829 31.1599ZM169.659 15.6899H170.159C170.159 10.3807 172.224 6.74183 175.562 4.40983C178.928 2.05871 183.642 0.999921 188.979 0.999921V0.499921V-7.85589e-05C183.535 -7.85589e-05 178.589 1.07613 174.99 3.59002C171.363 6.12301 169.159 10.0791 169.159 15.6899H169.659ZM188.979 0.499921V0.999921C194.741 0.999921 199.845 2.51867 203.539 5.25066C207.222 7.97515 209.52 11.915 209.689 16.8272L210.189 16.8099L210.688 16.7927C210.508 11.5548 208.045 7.33969 204.133 4.44668C200.232 1.56117 194.906 -7.85589e-05 188.979 -7.85589e-05V0.499921ZM210.189 16.8099V16.3099H197.589V16.8099V17.3099H210.189V16.8099ZM197.589 16.8099L198.083 16.7366C197.783 14.7125 196.764 13.0849 195.171 11.9725C193.587 10.8666 191.467 10.2899 188.979 10.2899V10.7899V11.2899C191.32 11.2899 193.225 11.8332 194.599 12.7924C195.963 13.745 196.834 15.1273 197.094 16.8832L197.589 16.8099ZM188.979 10.7899V10.2899C187.049 10.2899 185.275 10.5917 183.965 11.2943C182.627 12.0114 181.759 13.1615 181.759 14.7799H182.259H182.759C182.759 13.5983 183.36 12.7534 184.437 12.1756C185.542 11.5832 187.128 11.2899 188.979 11.2899V10.7899ZM182.259 14.7799H181.759C181.759 15.6428 181.982 16.3855 182.442 17.0313C182.896 17.6678 183.558 18.1785 184.384 18.6238C186.019 19.5052 188.445 20.2022 191.575 21.0717L191.709 20.5899L191.842 20.1082C188.672 19.2276 186.373 18.5597 184.858 17.7435C184.11 17.3401 183.59 16.9189 183.256 16.4508C182.929 15.9918 182.759 15.457 182.759 14.7799H182.259ZM228.604 51.6699H228.104V52.1699H228.604V51.6699ZM228.604 11.9099H229.104V11.4099H228.604V11.9099ZM214.044 11.9099H213.544V12.4099H214.044V11.9099ZM214.044 1.61992V1.11992H213.544V1.61992H214.044ZM255.694 1.61992H256.194V1.11992H255.694V1.61992ZM255.694 11.9099V12.4099H256.194V11.9099H255.694ZM241.204 11.9099V11.4099H240.704V11.9099H241.204ZM241.204 51.6699V52.1699H241.704V51.6699H241.204ZM228.604 51.6699H229.104V11.9099H228.604H228.104V51.6699H228.604ZM228.604 11.9099V11.4099H214.044V11.9099V12.4099H228.604V11.9099ZM214.044 11.9099H214.544V1.61992H214.044H213.544V11.9099H214.044ZM214.044 1.61992V2.11992H255.694V1.61992V1.11992H214.044V1.61992ZM255.694 1.61992H255.194V11.9099H255.694H256.194V1.61992H255.694ZM255.694 11.9099V11.4099H241.204V11.9099V12.4099H255.694V11.9099ZM241.204 11.9099H240.704V51.6699H241.204H241.704V11.9099H241.204ZM241.204 51.6699V51.1699H228.604V51.6699V52.1699H241.204V51.6699ZM275.007 20.7999H274.507V21.2999H275.007V20.7999ZM296.847 20.7999H297.347V20.2999H296.847V20.7999ZM296.847 31.0899V31.5899H297.347V31.0899H296.847ZM275.007 31.0899V30.5899H274.507V31.0899H275.007ZM275.007 41.3799H274.507V41.8799H275.007V41.3799ZM300.767 41.3799H301.267V40.8799H300.767V41.3799ZM300.767 51.6699V52.1699H301.267V51.6699H300.767ZM262.407 51.6699H261.907V52.1699H262.407V51.6699ZM262.407 1.61992V1.11992H261.907V1.61992H262.407ZM300.347 1.61992H300.847V1.11992H300.347V1.61992ZM300.347 11.9099V12.4099H300.847V11.9099H300.347ZM275.007 11.9099V11.4099H274.507V11.9099H275.007ZM275.007 20.7999V21.2999H296.847V20.7999V20.2999H275.007V20.7999ZM296.847 20.7999H296.347V31.0899H296.847H297.347V20.7999H296.847ZM296.847 31.0899V30.5899H275.007V31.0899V31.5899H296.847V31.0899ZM275.007 31.0899H274.507V41.3799H275.007H275.507V31.0899H275.007ZM275.007 41.3799V41.8799H300.767V41.3799V40.8799H275.007V41.3799ZM300.767 41.3799H300.267V51.6699H300.767H301.267V41.3799H300.767ZM300.767 51.6699V51.1699H262.407V51.6699V52.1699H300.767V51.6699ZM262.407 51.6699H262.907V1.61992H262.407H261.907V51.6699H262.407ZM262.407 1.61992V2.11992H300.347V1.61992V1.11992H262.407V1.61992ZM300.347 1.61992H299.847V11.9099H300.347H300.847V1.61992H300.347ZM300.347 11.9099V11.4099H275.007V11.9099V12.4099H300.347V11.9099ZM275.007 11.9099H274.507V20.7999H275.007H275.507V11.9099H275.007ZM308.462 51.6699H307.962V52.1699H308.462V51.6699ZM308.462 1.61992V1.11992H307.962V1.61992H308.462ZM339.752 28.4299L339.642 27.9421L339.252 28.0298V28.4299H339.752ZM339.752 28.5699H339.252V28.9908L339.667 29.0626L339.752 28.5699ZM350.602 50.9699H351.102V50.5953L350.742 50.4901L350.602 50.9699ZM350.602 51.6699V52.1699H351.102V51.6699H350.602ZM337.512 51.6699L337.187 52.0496L337.327 52.1699H337.512V51.6699ZM321.062 34.2399V33.7399H320.562V34.2399H321.062ZM321.062 51.6699V52.1699H321.562V51.6699H321.062ZM321.062 11.9099V11.4099H320.562V11.9099H321.062ZM321.062 23.9499H320.562V24.4499H321.062V23.9499ZM308.462 51.6699H308.962V1.61992H308.462H307.962V51.6699H308.462ZM308.462 1.61992V2.11992H332.052V1.61992V1.11992H308.462V1.61992ZM332.052 1.61992V2.11992C337.549 2.11992 341.886 3.38275 344.838 5.7465C347.775 8.09716 349.402 11.5843 349.402 16.1799H349.902H350.402C350.402 11.3255 348.67 7.53268 345.463 4.96584C342.273 2.41209 337.685 1.11992 332.052 1.11992V1.61992ZM349.902 16.1799H349.402C349.402 19.4021 348.455 21.9947 346.783 23.9487C345.109 25.9062 342.676 27.2605 339.642 27.9421L339.752 28.4299L339.862 28.9178C343.058 28.1994 345.7 26.7536 347.543 24.5987C349.389 22.4401 350.402 19.6077 350.402 16.1799H349.902ZM339.752 28.4299H339.252V28.5699H339.752H340.252V28.4299H339.752ZM339.752 28.5699L339.667 29.0626C342.65 29.5793 344.599 31.1098 345.91 33.1386C347.234 35.187 347.915 37.7583 348.305 40.3432C348.696 42.9358 348.784 45.4588 348.96 47.4644C349.046 48.4503 349.156 49.3271 349.345 49.9919C349.439 50.325 349.562 50.6335 349.73 50.8835C349.902 51.1381 350.139 51.3555 350.462 51.4498L350.602 50.9699L350.742 50.4901C350.706 50.4794 350.642 50.4468 350.559 50.324C350.473 50.1967 350.387 50.0003 350.307 49.7186C350.146 49.1537 350.042 48.361 349.956 47.377C349.786 45.4429 349.691 42.8253 349.294 40.1941C348.896 37.5553 348.187 34.8197 346.75 32.5959C345.3 30.3525 343.119 28.6455 339.837 28.0773L339.752 28.5699ZM350.602 50.9699H350.102V51.6699H350.602H351.102V50.9699H350.602ZM350.602 51.6699V51.1699H337.512V51.6699V52.1699H350.602V51.6699ZM337.512 51.6699L337.837 51.2903C337.663 51.1406 337.493 50.8125 337.367 50.2147C337.245 49.6359 337.181 48.8984 337.139 48.036C337.055 46.3393 337.057 44.1774 336.801 42.1059C336.544 40.0309 336.018 37.9419 334.819 36.3654C333.597 34.7578 331.718 33.7399 328.902 33.7399V34.2399V34.7399C331.441 34.7399 333.01 35.6383 334.023 36.9707C335.06 38.3342 335.558 40.2089 335.808 42.2289C336.059 44.2525 336.053 46.3168 336.14 48.0851C336.183 48.9552 336.249 49.7599 336.389 50.4214C336.524 51.0639 336.749 51.6742 337.187 52.0496L337.512 51.6699ZM328.902 34.2399V33.7399H321.062V34.2399V34.7399H328.902V34.2399ZM321.062 34.2399H320.562V51.6699H321.062H321.562V34.2399H321.062ZM321.062 51.6699V51.1699H308.462V51.6699V52.1699H321.062V51.6699ZM321.062 11.9099H320.562V23.9499H321.062H321.562V11.9099H321.062ZM321.062 23.9499V24.4499H329.602V23.9499V23.4499H321.062V23.9499ZM329.602 23.9499V24.4499C332.166 24.4499 334.222 23.9899 335.644 22.9136C337.094 21.816 337.802 20.1437 337.802 17.9299H337.302H336.802C336.802 19.9161 336.18 21.2539 335.04 22.1162C333.873 22.9999 332.078 23.4499 329.602 23.4499V23.9499ZM337.302 17.9299H337.802C337.802 15.7161 337.094 14.0439 335.644 12.9462C334.222 11.8699 332.166 11.4099 329.602 11.4099V11.9099V12.4099C332.078 12.4099 333.873 12.8599 335.04 13.7436C336.18 14.606 336.802 15.9437 336.802 17.9299H337.302ZM329.602 11.9099V11.4099H321.062V11.9099V12.4099H329.602V11.9099Z" fill="white" mask="url(#path-1-outside-1_79_1504)"/>
<defs>
<filter id="filter0_i_79_1504" x="0" y="0" width="351.102" height="58.29" filterUnits="userSpaceOnUse" color-interpolation-filters="sRGB">
<feFlood flood-opacity="0" result="BackgroundImageFix"/>
<feBlend mode="normal" in="SourceGraphic" in2="BackgroundImageFix" result="shape"/>
<feColorMatrix in="SourceAlpha" type="matrix" values="0 0 0 0 0 0 0 0 0 0 0 0 0 0 0 0 0 0 127 0" result="hardAlpha"/>
<feOffset dy="5"/>
<feGaussianBlur stdDeviation="3.1"/>
<feComposite in2="hardAlpha" operator="arithmetic" k2="-1" k3="1"/>
<feColorMatrix type="matrix" values="0 0 0 0 0 0 0 0 0 0 0 0 0 0 0 0 0 0 0.25 0"/>
<feBlend mode="normal" in2="shape" result="effect1_innerShadow_79_1504"/>
</filter>
</defs>
</svg>
