<svg width="352" height="53" viewBox="0 0 352 53" fill="none" xmlns="http://www.w3.org/2000/svg">
<g filter="url(#filter0_i_79_1504)">
<path d="M0.000312671 51.1699V1.11992H23.5903C34.7203 1.11992 41.4403 6.22992 41.4403 15.6799C41.4403 22.3299 37.5203 26.5299 31.2903 27.9299V28.0699C43.8203 30.2399 39.2703 49.6299 42.1403 50.4699V51.1699H29.0503C26.6003 49.0699 31.1503 33.7399 20.4403 33.7399H12.6003V51.1699H0.000312671ZM12.6003 11.4099V23.4499H21.1403C26.1803 23.4499 28.8403 21.6299 28.8403 17.4299C28.8403 13.2299 26.1803 11.4099 21.1403 11.4099H12.6003ZM61.6632 20.2999H83.5032V30.5899H61.6632V40.8799H87.4232V51.1699H49.0632V1.11992H87.0032V11.4099H61.6632V20.2999ZM126.293 17.7099C125.383 14.2799 123.073 10.2899 116.143 10.2899C107.883 10.2899 104.733 16.7299 104.733 26.1099C104.733 35.5599 107.883 41.9999 116.633 41.9999C122.443 41.9999 126.503 38.4999 126.643 33.6699H117.123V24.5699H139.663V51.1699H130.633L129.373 44.7999H129.233C126.853 49.3499 122.163 52.2899 114.813 52.2899C100.603 52.2899 92.1329 41.2299 92.1329 26.1099C92.1329 11.0599 100.603 -7.85589e-05 116.353 -7.85589e-05C130.073 -7.85589e-05 137.703 8.11992 138.893 17.7099H126.293ZM147.874 1.11992H160.474V51.1699H147.874V1.11992ZM191.209 20.0899C200.659 22.6799 210.389 25.7599 210.389 36.4699C210.389 46.0599 203.109 52.2899 190.579 52.2899C177.559 52.2899 167.759 45.8499 167.759 34.7199H180.359C180.359 40.0399 184.979 41.9999 190.579 41.9999C195.269 41.9999 197.789 40.1799 197.789 37.6599C197.789 33.6699 192.399 32.7599 185.329 30.6599C176.719 28.1399 169.159 24.4299 169.159 15.1899C169.159 4.26992 177.699 -7.85589e-05 188.479 -7.85589e-05C200.169 -7.85589e-05 209.339 6.15992 209.689 16.3099H197.089C196.529 12.5299 193.309 10.2899 188.479 10.2899C184.699 10.2899 181.759 11.4799 181.759 14.2799C181.759 17.3599 184.909 18.3399 191.209 20.0899ZM228.104 51.1699V11.4099H213.544V1.11992H255.194V11.4099H240.704V51.1699H228.104ZM274.507 20.2999H296.347V30.5899H274.507V40.8799H300.267V51.1699H261.907V1.11992H299.847V11.4099H274.507V20.2999ZM307.962 51.1699V1.11992H331.552C342.682 1.11992 349.402 6.22992 349.402 15.6799C349.402 22.3299 345.482 26.5299 339.252 27.9299V28.0699C351.782 30.2399 347.232 49.6299 350.102 50.4699V51.1699H337.012C334.562 49.0699 339.112 33.7399 328.402 33.7399H320.562V51.1699H307.962ZM320.562 11.4099V23.4499H329.102C334.142 23.4499 336.802 21.6299 336.802 17.4299C336.802 13.2299 334.142 11.4099 329.102 11.4099H320.562Z" fill="#E7ECF0"/>
</g>
<defs>
<filter id="filter0_i_79_1504" x="0" y="0" width="351.781" height="56.29" filterUnits="userSpaceOnUse" color-interpolation-filters="sRGB">
<feFlood flood-opacity="0" result="BackgroundImageFix"/>
<feBlend mode="normal" in="SourceGraphic" in2="BackgroundImageFix" result="shape"/>
<feColorMatrix in="SourceAlpha" type="matrix" values="0 0 0 0 0 0 0 0 0 0 0 0 0 0 0 0 0 0 127 0" result="hardAlpha"/>
<feOffset dy="4"/>
<feGaussianBlur stdDeviation="2"/>
<feComposite in2="hardAlpha" operator="arithmetic" k2="-1" k3="1"/>
<feColorMatrix type="matrix" values="0 0 0 0 0 0 0 0 0 0 0 0 0 0 0 0 0 0 0.25 0"/>
<feBlend mode="normal" in2="shape" result="effect1_innerShadow_79_1504"/>
</filter>
</defs>
</svg>
