<svg width="34" height="34" viewBox="0 0 34 34" fill="none" xmlns="http://www.w3.org/2000/svg">
<path fill-rule="evenodd" clip-rule="evenodd" d="M0 13.6C0 6.08513 6.79201 0 15.161 0C22.9308 0 29.3405 5.2444 30.2193 12.0092L33.5724 16.9619C34.4628 18.2773 33.9269 20.0298 32.297 20.6065C31.5225 20.8806 30.6296 21.1674 29.713 21.402L29.4096 25.2531C29.2915 26.7506 27.8234 27.8588 26.1771 27.693L23.39 27.4124V31.2734C23.39 32.3856 22.602 33.399 21.3329 33.5946C20.0353 33.7944 17.9874 34 15.0539 34C12.1203 34 10.0724 33.7944 8.77484 33.5946C7.50575 33.399 6.71774 32.3856 6.71774 31.2734V24.8974C2.66807 22.4573 0 18.3089 0 13.6ZM4.65856 16.7476C3.03936 12.3723 4.97945 7.42533 9.56018 5.02826C14.137 2.63324 19.828 3.5802 23.2 7.03153C24.5093 8.37167 24.0644 10.2528 22.762 11.2634C21.3502 12.3591 19.0485 14.0242 16.4333 15.4342C13.7312 16.891 10.7603 17.9383 8.90338 18.5227C7.28951 19.0306 5.28331 18.4357 4.65856 16.7476Z" fill="#979797"/>
</svg>
